<svg id="Layer_1" data-name="Layer 1" xmlns="http://www.w3.org/2000/svg" xmlns:xlink="http://www.w3.org/1999/xlink" viewBox="0 0 1000 1000"><defs><style>.cls-1{fill:none;}.cls-2{fill:#434b9f;}.cls-3{clip-path:url(#clip-path);}.cls-4{fill:#fff;}</style><clipPath id="clip-path" transform="translate(364.74 -615.11)"><rect class="cls-1" x="-264.86" y="1020.73" width="923.89" height="384.65"/></clipPath></defs><circle class="cls-2" cx="500" cy="500" r="500"/><g class="cls-3"><path class="cls-4" d="M-192.16,1181.71c-2.25,1.17-15.27,7.19-28,7.19-34.77,0-48.73-20.43-48.73-42.65V1021.88h21.49v116.49c0,22.22,12.9,30.1,28.32,30.1a53.42,53.42,0,0,0,26.89-7.74m24.37-138.85h21.51v164.89h-21.51Z" transform="translate(364.74 -615.11)"/><path class="cls-4" d="M140,1021.87h21.5v164.88H140Zm97.85,164.88v-123.3c0-18.63-14.33-22.93-22.94-22.93-11.1,0-25.81,6.69-28.32,8.84v-21.61c4.12-2.94,20.81-8,30.12-8,34,0,42.65,20.07,42.65,49.11v117.91Zm97.14,0v-123.3c0-18.63-14.34-22.93-23.3-22.93-13.11,0-27.61,8.94-27.61,8.94v-22.68s14.35-6.69,29.4-6.69c30.83,0,43,20.07,43,38.71v128Z" transform="translate(364.74 -615.11)"/><path class="cls-4" d="M-111.39,1021.87h21.5v164.88h-21.5Zm97.85,164.88v-123.3c0-18.63-14.33-22.93-22.94-22.93-11.1,0-25.81,6.69-28.32,8.84v-21.61c4.12-2.94,20.8-8,30.11-8C-.64,1019.73,8,1039.8,8,1068.84v117.91Zm97.14,0v-123.3c0-18.63-14.34-22.93-23.3-22.93-13.1,0-27.6,8.94-27.6,8.94v-22.68s14.34-6.69,29.4-6.69c30.82,0,43,20.07,43,38.71v128Z" transform="translate(364.74 -615.11)"/><path class="cls-4" d="M451.46,1184.63a72.78,72.78,0,0,1-22.94,4.27c-28.3,0-42.65-18.63-42.65-40.86,0-31.54,27.68-48.73,65.59-57.33v20.17c-19.31,5.29-43.72,17.09-43.72,35.38s11.1,24.36,24,24.36c5.38,0,16.5-3.44,19.71-5.84m24.38,22V1069.9c0-21.86-11.46-30.46-30.47-30.46-18.28,0-37.63,16.85-39.78,18.63L393,1042.67c6.45-5,23.66-22.94,52.33-22.94,28.31,0,52,13.26,52,46.24v120.78Z" transform="translate(364.74 -615.11)"/></g></svg>